<?xml version="1.0" encoding="UTF-8" standalone="no"?>
<svg
   xmlns:dc="http://purl.org/dc/elements/1.1/"
   xmlns:cc="http://creativecommons.org/ns#"
   xmlns:rdf="http://www.w3.org/1999/02/22-rdf-syntax-ns#"
   xmlns:svg="http://www.w3.org/2000/svg"
   xmlns="http://www.w3.org/2000/svg"
   viewBox="0 0 536.77625 252.3925"
   height="252.3925"
   width="536.77625"
   xml:space="preserve"
   version="1.1"
   id="svg2"><metadata
     id="metadata8"><rdf:RDF><cc:Work
         rdf:about=""><dc:format>image/svg+xml</dc:format><dc:type
           rdf:resource="http://purl.org/dc/dcmitype/StillImage" /></cc:Work></rdf:RDF></metadata><defs
     id="defs6"><clipPath
       id="clipPath16"
       clipPathUnits="userSpaceOnUse"><path
         id="path18"
         d="m 0,201.914 429.421,0 L 429.421,0 0,0 0,201.914 Z" /></clipPath></defs><g
     transform="matrix(1.25,0,0,-1.25,0,252.3925)"
     id="g10"><g
       id="g12"><g
         clip-path="url(#clipPath16)"
         id="g14"><g
           transform="translate(130.0835,7.7177)"
           id="g20"><path
             id="path22"
             style="fill:#32454b;fill-opacity:1;fill-rule:nonzero;stroke:none"
             d="m 0,0 c 1.98,0 3.278,1.059 3.278,2.629 l 0,0.034 c 0,1.708 -1.28,2.596 -3.21,2.596 l -3.022,0 L -2.954,0 0,0 Z m -4.303,5.822 c 0,0.375 0.307,0.683 0.666,0.683 l 3.808,0 c 2.698,0 4.474,-1.435 4.474,-3.79 l 0,-0.034 c 0,-2.579 -2.152,-3.91 -4.696,-3.91 l -2.903,0 0,-3.621 c 0,-0.376 -0.307,-0.682 -0.683,-0.682 -0.359,0 -0.666,0.306 -0.666,0.682 l 0,10.672 z" /></g><g
           transform="translate(136.8125,13.625)"
           id="g24"><path
             id="path26"
             style="fill:#32454b;fill-opacity:1;fill-rule:nonzero;stroke:none"
             d="M 0,0 C 0,0.376 0.307,0.683 0.666,0.683 1.042,0.683 1.349,0.376 1.349,0 l 0,-10.108 6.198,0 c 0.341,0 0.615,-0.29 0.615,-0.632 0,-0.341 -0.274,-0.614 -0.615,-0.614 l -6.881,0 C 0.307,-11.354 0,-11.047 0,-10.672 L 0,0 Z" /></g><g
           transform="translate(154.7246,6.6582)"
           id="g28"><path
             id="path30"
             style="fill:#32454b;fill-opacity:1;fill-rule:nonzero;stroke:none"
             d="M 0,0 -2.749,6.113 -5.498,0 0,0 Z m -8.452,-3.5 4.849,10.604 c 0.171,0.375 0.427,0.597 0.854,0.597 l 0.068,0 c 0.41,0 0.683,-0.222 0.837,-0.597 L 3.005,-3.482 c 0.051,-0.121 0.085,-0.24 0.085,-0.342 0,-0.359 -0.29,-0.649 -0.649,-0.649 -0.324,0 -0.546,0.222 -0.665,0.495 l -1.247,2.749 -6.556,0 -1.247,-2.783 c -0.12,-0.291 -0.341,-0.461 -0.649,-0.461 -0.341,0 -0.615,0.273 -0.615,0.615 0,0.102 0.017,0.221 0.086,0.358" /></g><g
           transform="translate(160.0195,13.6084)"
           id="g32"><path
             id="path34"
             style="fill:#32454b;fill-opacity:1;fill-rule:nonzero;stroke:none"
             d="m 0,0 c 0,0.358 0.307,0.666 0.666,0.666 l 0.188,0 c 0.307,0 0.495,-0.154 0.683,-0.394 l 7.256,-9.253 0,9.015 c 0,0.359 0.29,0.665 0.666,0.665 0.359,0 0.649,-0.306 0.649,-0.665 l 0,-10.792 c 0,-0.358 -0.256,-0.631 -0.614,-0.631 l -0.069,0 c -0.29,0 -0.495,0.17 -0.7,0.41 l -7.41,9.476 0,-9.255 c 0,-0.358 -0.291,-0.665 -0.666,-0.665 C 0.29,-11.423 0,-11.116 0,-10.758 L 0,0 Z" /></g><g
           transform="translate(173.1343,2.9531)"
           id="g36"><path
             id="path38"
             style="fill:#32454b;fill-opacity:1;fill-rule:nonzero;stroke:none"
             d="m 0,0 0,10.587 c 0,0.375 0.307,0.683 0.666,0.683 l 7.427,0 c 0.342,0 0.615,-0.274 0.615,-0.615 0,-0.342 -0.273,-0.615 -0.615,-0.615 l -6.744,0 0,-4.081 5.976,0 c 0.342,0 0.614,-0.29 0.614,-0.614 C 7.939,5.003 7.667,4.73 7.325,4.73 l -5.976,0 0,-4.183 6.83,0 c 0.341,0 0.614,-0.274 0.614,-0.615 0,-0.341 -0.273,-0.615 -0.614,-0.615 l -7.513,0 C 0.307,-0.683 0,-0.375 0,0" /></g><g
           transform="translate(191.918,6.6582)"
           id="g40"><path
             id="path42"
             style="fill:#32454b;fill-opacity:1;fill-rule:nonzero;stroke:none"
             d="M 0,0 -2.749,6.113 -5.498,0 0,0 Z m -8.452,-3.5 4.849,10.604 c 0.171,0.375 0.427,0.597 0.854,0.597 l 0.068,0 c 0.41,0 0.683,-0.222 0.837,-0.597 L 3.005,-3.482 c 0.051,-0.121 0.085,-0.24 0.085,-0.342 0,-0.359 -0.29,-0.649 -0.649,-0.649 -0.324,0 -0.546,0.222 -0.665,0.495 l -1.247,2.749 -6.556,0 -1.247,-2.783 c -0.12,-0.291 -0.341,-0.461 -0.649,-0.461 -0.341,0 -0.615,0.273 -0.615,0.615 0,0.102 0.017,0.221 0.086,0.358" /></g><g
           transform="translate(196.0683,8.2129)"
           id="g44"><path
             id="path46"
             style="fill:#32454b;fill-opacity:1;fill-rule:nonzero;stroke:none"
             d="m 0,0 0,0.034 c 0,3.38 2.527,6.181 6.044,6.181 1.93,0 3.159,-0.632 4.269,-1.554 0.137,-0.12 0.273,-0.307 0.273,-0.547 0,-0.358 -0.324,-0.666 -0.683,-0.666 -0.188,0 -0.341,0.086 -0.444,0.155 C 8.537,4.422 7.496,4.969 6.027,4.969 3.381,4.969 1.4,2.816 1.4,0.068 l 0,-0.034 c 0,-2.766 1.998,-4.934 4.627,-4.934 1.486,0 2.527,0.511 3.552,1.451 0.102,0.102 0.256,0.187 0.427,0.187 0.341,0 0.648,-0.307 0.648,-0.648 0,-0.205 -0.102,-0.376 -0.221,-0.479 C 9.254,-5.464 7.957,-6.147 5.993,-6.147 2.544,-6.147 0,-3.433 0,0" /></g><g
           transform="translate(208.9443,13.625)"
           id="g48"><path
             id="path50"
             style="fill:#32454b;fill-opacity:1;fill-rule:nonzero;stroke:none"
             d="M 0,0 C 0,0.376 0.307,0.683 0.666,0.683 1.042,0.683 1.349,0.376 1.349,0 l 0,-10.757 c 0,-0.376 -0.307,-0.682 -0.683,-0.682 -0.359,0 -0.666,0.306 -0.666,0.682 L 0,0 Z" /></g><g
           transform="translate(218.6089,15.623)"
           id="g52"><path
             id="path54"
             style="fill:#32454b;fill-opacity:1;fill-rule:nonzero;stroke:none"
             d="M 0,0 C 0,0.085 0.034,0.187 0.086,0.256 L 1.109,1.81 c 0.172,0.255 0.36,0.392 0.616,0.392 0.41,0 0.921,-0.272 0.921,-0.512 0,-0.136 -0.101,-0.256 -0.238,-0.392 L 1.127,0.085 C 0.854,-0.188 0.648,-0.239 0.324,-0.239 0.137,-0.239 0,-0.137 0,0 m 5.071,-7.41 0,0.034 c 0,2.715 -1.98,4.935 -4.712,4.935 -2.732,0 -4.679,-2.186 -4.679,-4.901 l 0,-0.034 c 0,-2.715 1.981,-4.935 4.713,-4.935 2.732,0 4.678,2.186 4.678,4.901 m -10.791,0 0,0.034 c 0,3.295 2.476,6.181 6.113,6.181 3.636,0 6.079,-2.852 6.079,-6.147 l 0,-0.034 c 0,-3.296 -2.476,-6.182 -6.113,-6.182 -3.637,0 -6.079,2.852 -6.079,6.148" /></g><g
           transform="translate(227.5581,13.6084)"
           id="g56"><path
             id="path58"
             style="fill:#32454b;fill-opacity:1;fill-rule:nonzero;stroke:none"
             d="m 0,0 c 0,0.358 0.308,0.666 0.666,0.666 l 0.188,0 c 0.308,0 0.496,-0.154 0.683,-0.394 l 7.257,-9.253 0,9.015 c 0,0.359 0.29,0.665 0.666,0.665 0.358,0 0.648,-0.306 0.648,-0.665 l 0,-10.792 c 0,-0.358 -0.255,-0.631 -0.614,-0.631 l -0.068,0 c -0.29,0 -0.495,0.17 -0.7,0.41 l -7.411,9.476 0,-9.255 c 0,-0.358 -0.29,-0.665 -0.666,-0.665 -0.358,0 -0.649,0.307 -0.649,0.665 L 0,0 Z" /></g><g
           transform="translate(245.7632,15.4179)"
           id="g60"><path
             id="path62"
             style="fill:#ef433a;fill-opacity:1;fill-rule:nonzero;stroke:none"
             d="M 0,0 C 0,0.308 0.256,0.563 0.563,0.563 0.854,0.563 1.109,0.308 1.109,0 l 0,-14.854 c 0,-0.308 -0.255,-0.564 -0.546,-0.564 -0.307,0 -0.563,0.256 -0.563,0.564 L 0,0 Z" /></g><g
           transform="translate(258.9458,15.4521)"
           id="g64"><path
             id="path66"
             style="fill:#32454b;fill-opacity:1;fill-rule:nonzero;stroke:none"
             d="M 0,0 C 0,0.085 0.034,0.187 0.085,0.256 L 1.109,1.81 C 1.28,2.066 1.468,2.202 1.725,2.202 2.134,2.202 2.646,1.93 2.646,1.69 2.646,1.554 2.544,1.435 2.407,1.298 L 1.127,0.085 C 0.854,-0.187 0.648,-0.239 0.324,-0.239 0.137,-0.239 0,-0.137 0,0 m -3.979,-12.499 0,10.587 c 0,0.375 0.308,0.683 0.667,0.683 l 7.427,0 c 0.341,0 0.614,-0.274 0.614,-0.615 0,-0.342 -0.273,-0.615 -0.614,-0.615 l -6.745,0 0,-4.081 5.977,0 c 0.341,0 0.614,-0.29 0.614,-0.614 0,-0.342 -0.273,-0.615 -0.614,-0.615 l -5.977,0 0,-4.183 6.83,0 c 0.342,0 0.614,-0.274 0.614,-0.615 0,-0.341 -0.272,-0.615 -0.614,-0.615 l -7.512,0 c -0.359,0 -0.667,0.308 -0.667,0.683" /></g><g
           transform="translate(269.1919,12.9765)"
           id="g68"><path
             id="path70"
             style="fill:#32454b;fill-opacity:1;fill-rule:nonzero;stroke:none"
             d="m 0,0 -3.467,0 c -0.341,0 -0.632,0.272 -0.632,0.614 0,0.342 0.291,0.632 0.632,0.632 l 8.299,0 c 0.341,0 0.632,-0.29 0.632,-0.632 C 5.464,0.272 5.173,0 4.832,0 l -3.467,0 0,-10.108 c 0,-0.376 -0.306,-0.683 -0.682,-0.683 -0.376,0 -0.683,0.307 -0.683,0.683 L 0,0 Z" /></g><g
           transform="translate(276.8413,13.625)"
           id="g72"><path
             id="path74"
             style="fill:#32454b;fill-opacity:1;fill-rule:nonzero;stroke:none"
             d="M 0,0 C 0,0.376 0.308,0.683 0.666,0.683 1.042,0.683 1.35,0.376 1.35,0 l 0,-10.757 c 0,-0.376 -0.308,-0.682 -0.684,-0.682 -0.358,0 -0.666,0.306 -0.666,0.682 L 0,0 Z" /></g><g
           transform="translate(280.7866,8.2129)"
           id="g76"><path
             id="path78"
             style="fill:#32454b;fill-opacity:1;fill-rule:nonzero;stroke:none"
             d="m 0,0 0,0.034 c 0,3.38 2.527,6.181 6.044,6.181 1.93,0 3.159,-0.632 4.269,-1.554 0.136,-0.12 0.273,-0.307 0.273,-0.547 0,-0.358 -0.324,-0.666 -0.683,-0.666 -0.187,0 -0.341,0.086 -0.444,0.155 C 8.537,4.422 7.496,4.969 6.027,4.969 3.381,4.969 1.4,2.816 1.4,0.068 l 0,-0.034 c 0,-2.766 1.997,-4.934 4.627,-4.934 1.486,0 2.528,0.511 3.552,1.451 0.103,0.102 0.256,0.187 0.427,0.187 0.341,0 0.648,-0.307 0.648,-0.648 0,-0.205 -0.102,-0.376 -0.221,-0.479 C 9.254,-5.464 7.957,-6.147 5.993,-6.147 2.544,-6.147 0,-3.433 0,0" /></g><g
           transform="translate(301.2602,6.6582)"
           id="g80"><path
             id="path82"
             style="fill:#32454b;fill-opacity:1;fill-rule:nonzero;stroke:none"
             d="M 0,0 -2.749,6.113 -5.498,0 0,0 Z m -8.452,-3.5 4.849,10.604 c 0.171,0.375 0.427,0.597 0.854,0.597 l 0.068,0 c 0.41,0 0.683,-0.222 0.837,-0.597 L 3.005,-3.482 c 0.052,-0.121 0.086,-0.24 0.086,-0.342 0,-0.359 -0.291,-0.649 -0.65,-0.649 -0.324,0 -0.545,0.222 -0.666,0.495 l -1.246,2.749 -6.556,0 -1.246,-2.783 c -0.121,-0.291 -0.342,-0.461 -0.65,-0.461 -0.342,0 -0.614,0.273 -0.614,0.615 0,0.102 0.016,0.221 0.085,0.358" /></g><g
           transform="translate(311.644,15.4179)"
           id="g84"><path
             id="path86"
             style="fill:#ef433a;fill-opacity:1;fill-rule:nonzero;stroke:none"
             d="M 0,0 C 0,0.308 0.256,0.563 0.563,0.563 0.854,0.563 1.109,0.308 1.109,0 l 0,-14.854 c 0,-0.308 -0.255,-0.564 -0.546,-0.564 -0.307,0 -0.563,0.256 -0.563,0.564 L 0,0 Z" /></g><g
           transform="translate(320.9673,13.625)"
           id="g88"><path
             id="path90"
             style="fill:#32454b;fill-opacity:1;fill-rule:nonzero;stroke:none"
             d="M 0,0 C 0,0.376 0.308,0.683 0.666,0.683 1.042,0.683 1.35,0.376 1.35,0 l 0,-10.757 c 0,-0.376 -0.308,-0.682 -0.684,-0.682 -0.358,0 -0.666,0.306 -0.666,0.682 L 0,0 Z" /></g><g
           transform="translate(325.4409,13.6084)"
           id="g92"><path
             id="path94"
             style="fill:#32454b;fill-opacity:1;fill-rule:nonzero;stroke:none"
             d="m 0,0 c 0,0.358 0.308,0.666 0.666,0.666 l 0.188,0 c 0.307,0 0.495,-0.154 0.683,-0.394 l 7.256,-9.253 0,9.015 c 0,0.359 0.291,0.665 0.666,0.665 0.358,0 0.649,-0.306 0.649,-0.665 l 0,-10.792 c 0,-0.358 -0.256,-0.631 -0.615,-0.631 l -0.068,0 c -0.29,0 -0.495,0.17 -0.7,0.41 l -7.411,9.476 0,-9.255 c 0,-0.358 -0.29,-0.665 -0.666,-0.665 C 0.29,-11.423 0,-11.116 0,-10.758 L 0,0 Z" /></g><g
           transform="translate(338.5571,13.6084)"
           id="g96"><path
             id="path98"
             style="fill:#32454b;fill-opacity:1;fill-rule:nonzero;stroke:none"
             d="m 0,0 c 0,0.358 0.308,0.666 0.666,0.666 l 0.188,0 c 0.307,0 0.495,-0.154 0.683,-0.394 l 7.256,-9.253 0,9.015 c 0,0.359 0.291,0.665 0.666,0.665 0.358,0 0.649,-0.306 0.649,-0.665 l 0,-10.792 c 0,-0.358 -0.256,-0.631 -0.615,-0.631 l -0.068,0 c -0.29,0 -0.495,0.17 -0.7,0.41 l -7.411,9.476 0,-9.255 c 0,-0.358 -0.29,-0.665 -0.666,-0.665 C 0.29,-11.423 0,-11.116 0,-10.758 L 0,0 Z" /></g><g
           transform="translate(361.9341,8.2129)"
           id="g100"><path
             id="path102"
             style="fill:#32454b;fill-opacity:1;fill-rule:nonzero;stroke:none"
             d="m 0,0 0,0.034 c 0,2.715 -1.98,4.935 -4.713,4.935 -2.731,0 -4.678,-2.186 -4.678,-4.901 l 0,-0.034 C -9.391,-2.681 -7.41,-4.9 -4.679,-4.9 -1.946,-4.9 0,-2.715 0,0 m -10.791,0 0,0.034 c 0,3.295 2.476,6.181 6.112,6.181 3.638,0 6.079,-2.852 6.079,-6.147 l 0,-0.034 c 0,-3.296 -2.475,-6.181 -6.113,-6.181 -3.637,0 -6.078,2.851 -6.078,6.147" /></g><g
           transform="translate(369.0385,2.6972)"
           id="g104"><path
             id="path106"
             style="fill:#32454b;fill-opacity:1;fill-rule:nonzero;stroke:none"
             d="m 0,0 -4.61,10.638 c -0.051,0.102 -0.069,0.187 -0.069,0.307 0,0.341 0.308,0.665 0.684,0.665 0.341,0 0.58,-0.221 0.699,-0.511 l 4.133,-9.904 4.148,9.938 c 0.12,0.239 0.36,0.477 0.666,0.477 0.376,0 0.666,-0.306 0.666,-0.648 0,-0.103 -0.016,-0.188 -0.05,-0.274 L 1.639,0 C 1.485,-0.342 1.246,-0.563 0.854,-0.563 l -0.069,0 C 0.393,-0.563 0.137,-0.342 0,0" /></g><g
           transform="translate(383.6723,6.6582)"
           id="g108"><path
             id="path110"
             style="fill:#32454b;fill-opacity:1;fill-rule:nonzero;stroke:none"
             d="M 0,0 -2.749,6.113 -5.498,0 0,0 Z m -8.452,-3.5 4.849,10.604 c 0.171,0.375 0.427,0.597 0.854,0.597 l 0.068,0 c 0.41,0 0.683,-0.222 0.837,-0.597 L 3.005,-3.482 c 0.052,-0.121 0.086,-0.24 0.086,-0.342 0,-0.359 -0.291,-0.649 -0.65,-0.649 -0.324,0 -0.545,0.222 -0.666,0.495 l -1.246,2.749 -6.556,0 -1.246,-2.783 c -0.121,-0.291 -0.342,-0.461 -0.65,-0.461 -0.342,0 -0.614,0.273 -0.614,0.615 0,0.102 0.016,0.221 0.085,0.358" /></g><g
           transform="translate(387.8247,8.2129)"
           id="g112"><path
             id="path114"
             style="fill:#32454b;fill-opacity:1;fill-rule:nonzero;stroke:none"
             d="m 0,0 0,0.034 c 0,3.38 2.527,6.181 6.044,6.181 1.93,0 3.159,-0.632 4.269,-1.554 0.136,-0.12 0.273,-0.307 0.273,-0.547 0,-0.358 -0.324,-0.666 -0.683,-0.666 -0.187,0 -0.341,0.086 -0.444,0.155 C 8.537,4.422 7.496,4.969 6.027,4.969 3.381,4.969 1.4,2.816 1.4,0.068 l 0,-0.034 c 0,-2.766 1.997,-4.934 4.627,-4.934 1.486,0 2.528,0.511 3.552,1.451 0.103,0.102 0.256,0.187 0.427,0.187 0.341,0 0.648,-0.307 0.648,-0.648 0,-0.205 -0.102,-0.376 -0.221,-0.479 C 9.254,-5.464 7.957,-6.147 5.993,-6.147 2.544,-6.147 0,-3.433 0,0" /></g><g
           transform="translate(400.6997,13.625)"
           id="g116"><path
             id="path118"
             style="fill:#32454b;fill-opacity:1;fill-rule:nonzero;stroke:none"
             d="M 0,0 C 0,0.376 0.308,0.683 0.666,0.683 1.042,0.683 1.35,0.376 1.35,0 l 0,-10.757 c 0,-0.376 -0.308,-0.682 -0.684,-0.682 -0.358,0 -0.666,0.306 -0.666,0.682 L 0,0 Z" /></g><g
           transform="translate(410.3637,15.623)"
           id="g120"><path
             id="path122"
             style="fill:#32454b;fill-opacity:1;fill-rule:nonzero;stroke:none"
             d="M 0,0 C 0,0.085 0.034,0.187 0.086,0.256 L 1.11,1.81 C 1.281,2.065 1.469,2.202 1.725,2.202 2.135,2.202 2.646,1.93 2.646,1.69 2.646,1.554 2.544,1.434 2.407,1.298 L 1.127,0.085 C 0.854,-0.188 0.649,-0.239 0.324,-0.239 0.137,-0.239 0,-0.137 0,0 m 5.071,-7.41 0,0.034 c 0,2.715 -1.98,4.935 -4.713,4.935 -2.731,0 -4.677,-2.186 -4.677,-4.901 l 0,-0.034 c 0,-2.715 1.98,-4.935 4.712,-4.935 2.732,0 4.678,2.186 4.678,4.901 m -10.791,0 0,0.034 c 0,3.295 2.476,6.181 6.113,6.181 3.637,0 6.079,-2.852 6.079,-6.147 l 0,-0.034 c 0,-3.296 -2.476,-6.182 -6.114,-6.182 -3.636,0 -6.078,2.852 -6.078,6.148" /></g><g
           transform="translate(419.313,13.6084)"
           id="g124"><path
             id="path126"
             style="fill:#32454b;fill-opacity:1;fill-rule:nonzero;stroke:none"
             d="m 0,0 c 0,0.358 0.308,0.666 0.666,0.666 l 0.188,0 c 0.307,0 0.495,-0.154 0.683,-0.394 l 7.256,-9.253 0,9.015 c 0,0.359 0.291,0.665 0.666,0.665 0.358,0 0.649,-0.306 0.649,-0.665 l 0,-10.792 c 0,-0.358 -0.256,-0.631 -0.615,-0.631 l -0.068,0 c -0.29,0 -0.495,0.17 -0.7,0.41 l -7.411,9.476 0,-9.255 c 0,-0.358 -0.29,-0.665 -0.666,-0.665 C 0.29,-11.423 0,-11.116 0,-10.758 L 0,0 Z" /></g><g
           transform="translate(124.9438,97.4746)"
           id="g128"><path
             id="path130"
             style="fill:#737373;fill-opacity:1;fill-rule:nonzero;stroke:none"
             d="m 0,0 0,0.056 c 0,5.444 4.033,9.953 9.647,9.953 3.08,0 5.042,-1.018 6.813,-2.502 0.219,-0.193 0.436,-0.495 0.436,-0.88 0,-0.577 -0.517,-1.072 -1.089,-1.072 -0.3,0 -0.546,0.137 -0.709,0.247 -1.472,1.32 -3.134,2.2 -5.478,2.2 -4.224,0 -7.385,-3.465 -7.385,-7.892 l 0,-0.054 c 0,-4.455 3.188,-7.947 7.385,-7.947 2.371,0 4.033,0.825 5.669,2.337 0.163,0.165 0.408,0.303 0.681,0.303 0.545,0 1.035,-0.495 1.035,-1.045 0,-0.33 -0.163,-0.605 -0.354,-0.77 C 14.771,-8.799 12.7,-9.898 9.565,-9.898 4.061,-9.898 0,-5.526 0,0" /></g><g
           transform="translate(160.5893,97.4746)"
           id="g132"><path
             id="path134"
             style="fill:#737373;fill-opacity:1;fill-rule:nonzero;stroke:none"
             d="m 0,0 0,0.056 c 0,4.372 -3.161,7.946 -7.521,7.946 -4.361,0 -7.468,-3.52 -7.468,-7.892 l 0,-0.054 c 0,-4.372 3.161,-7.947 7.522,-7.947 C -3.107,-7.891 0,-4.371 0,0 m -17.224,0 0,0.056 c 0,5.306 3.952,9.953 9.757,9.953 5.804,0 9.701,-4.592 9.701,-9.899 l 0,-0.054 c 0,-5.307 -3.951,-9.954 -9.755,-9.954 -5.806,0 -9.703,4.591 -9.703,9.898" /></g><g
           transform="translate(166.2295,106.164)"
           id="g136"><path
             id="path138"
             style="fill:#737373;fill-opacity:1;fill-rule:nonzero;stroke:none"
             d="m 0,0 c 0,0.577 0.491,1.072 1.063,1.072 l 0.3,0 c 0.491,0 0.79,-0.248 1.09,-0.633 l 11.582,-14.902 0,14.518 c 0,0.577 0.464,1.072 1.063,1.072 0.572,0 1.035,-0.495 1.035,-1.072 l 0,-17.378 c 0,-0.577 -0.408,-1.017 -0.981,-1.017 l -0.109,0 c -0.463,0 -0.79,0.275 -1.117,0.659 L 2.099,-2.42 l 0,-14.903 c 0,-0.577 -0.464,-1.073 -1.063,-1.073 C 0.463,-18.396 0,-17.9 0,-17.323 L 0,0 Z" /></g><g
           transform="translate(185.769,97.4746)"
           id="g140"><path
             id="path142"
             style="fill:#737373;fill-opacity:1;fill-rule:nonzero;stroke:none"
             d="m 0,0 0,0.056 c 0,5.279 3.843,9.953 9.565,9.953 2.89,0 4.77,-0.77 6.514,-2.062 0.245,-0.193 0.436,-0.495 0.436,-0.88 0,-0.605 -0.491,-1.1 -1.063,-1.1 -0.245,0 -0.463,0.11 -0.681,0.275 -1.363,1.045 -2.889,1.76 -5.287,1.76 C 5.26,8.002 2.235,4.399 2.235,0.11 l 0,-0.054 c 0,-4.592 2.916,-8.002 7.549,-8.002 2.18,0 4.196,0.852 5.505,1.925 l 0,4.784 -5.124,0 c -0.518,0 -0.954,0.44 -0.954,0.963 0,0.549 0.436,0.989 0.954,0.989 l 6.132,0 c 0.572,0 1.063,-0.494 1.063,-1.1 l 0,-5.856 c 0,-0.523 -0.246,-0.99 -0.736,-1.321 C 14.88,-8.854 12.536,-9.898 9.702,-9.898 3.707,-9.898 0,-5.499 0,0" /></g><g
           transform="translate(214.8472,97.3379)"
           id="g144"><path
             id="path146"
             style="fill:#737373;fill-opacity:1;fill-rule:nonzero;stroke:none"
             d="m 0,0 c 2.861,0 4.905,1.484 4.905,3.959 l 0,0.055 c 0,2.365 -1.799,3.795 -4.878,3.795 l -5.886,0 L -5.859,0 0,0 Z m -8.013,8.716 c 0,0.605 0.491,1.099 1.063,1.099 l 7.14,0 C 2.534,9.815 4.414,9.101 5.613,7.891 6.54,6.956 7.086,5.608 7.086,4.097 l 0,-0.055 C 7.086,0.88 4.959,-0.963 1.989,-1.54 L 6.73,-7.699 c 0.219,-0.248 0.356,-0.495 0.356,-0.798 0,-0.577 -0.546,-1.072 -1.091,-1.072 -0.436,0 -0.763,0.248 -1.009,0.577 l -5.368,7.039 -5.477,0 0,-6.517 c 0,-0.604 -0.491,-1.099 -1.091,-1.099 -0.572,0 -1.063,0.495 -1.063,1.099 l 0,17.186 z" /></g><g
           transform="translate(225.3921,89.0058)"
           id="g148"><path
             id="path150"
             style="fill:#737373;fill-opacity:1;fill-rule:nonzero;stroke:none"
             d="m 0,0 0,17.048 c 0,0.605 0.491,1.099 1.063,1.099 l 11.855,0 c 0.545,0 0.981,-0.439 0.981,-0.989 0,-0.55 -0.436,-0.99 -0.981,-0.99 l -10.764,0 0,-6.571 9.537,0 c 0.546,0 0.982,-0.468 0.982,-0.991 0,-0.549 -0.436,-0.989 -0.982,-0.989 l -9.537,0 0,-6.737 10.901,0 c 0.545,0 0.98,-0.44 0.98,-0.989 0,-0.551 -0.435,-0.991 -0.98,-0.991 l -11.992,0 C 0.491,-1.1 0,-0.604 0,0" /></g><g
           transform="translate(241.8257,90.2158)"
           id="g152"><path
             id="path154"
             style="fill:#737373;fill-opacity:1;fill-rule:nonzero;stroke:none"
             d="m 0,0 c -0.245,0.165 -0.409,0.468 -0.409,0.825 0,0.605 0.464,1.072 1.036,1.072 0.272,0 0.518,-0.11 0.654,-0.248 1.798,-1.539 3.597,-2.281 6.023,-2.281 2.561,0 4.251,1.374 4.251,3.272 l 0,0.054 c 0,1.788 -0.953,2.805 -4.96,3.658 C 2.207,7.314 0.19,8.744 0.19,11.906 l 0,0.055 c 0,3.024 2.644,5.252 6.269,5.252 2.507,0 4.333,-0.633 6.077,-1.898 0.218,-0.165 0.463,-0.466 0.463,-0.879 0,-0.578 -0.463,-1.045 -1.035,-1.045 -0.245,0 -0.437,0.055 -0.627,0.192 -1.608,1.183 -3.161,1.678 -4.933,1.678 -2.479,0 -4.06,-1.375 -4.06,-3.108 l 0,-0.054 c 0,-1.815 0.981,-2.832 5.177,-3.74 4.252,-0.935 6.214,-2.503 6.214,-5.444 l 0,-0.056 c 0,-3.298 -2.725,-5.444 -6.513,-5.444 C 4.442,-2.585 2.126,-1.705 0,0" /></g><g
           transform="translate(275.1821,97.4746)"
           id="g156"><path
             id="path158"
             style="fill:#737373;fill-opacity:1;fill-rule:nonzero;stroke:none"
             d="m 0,0 0,0.056 c 0,4.372 -3.161,7.946 -7.521,7.946 -4.361,0 -7.467,-3.52 -7.467,-7.892 l 0,-0.054 c 0,-4.372 3.161,-7.947 7.521,-7.947 C -3.106,-7.891 0,-4.371 0,0 m -17.223,0 0,0.056 c 0,5.306 3.952,9.953 9.756,9.953 5.805,0 9.702,-4.592 9.702,-9.899 l 0,-0.054 c 0,-5.307 -3.952,-9.954 -9.756,-9.954 -5.805,0 -9.702,4.591 -9.702,9.898" /></g><g
           transform="translate(287.854,106.164)"
           id="g160"><path
             id="path162"
             style="fill:#737373;fill-opacity:1;fill-rule:nonzero;stroke:none"
             d="m 0,0 c 0,0.577 0.49,1.072 1.062,1.072 l 0.3,0 c 0.491,0 0.79,-0.248 1.09,-0.633 l 11.582,-14.902 0,14.518 c 0,0.577 0.464,1.072 1.064,1.072 0.572,0 1.035,-0.495 1.035,-1.072 l 0,-17.378 c 0,-0.577 -0.408,-1.017 -0.981,-1.017 l -0.109,0 c -0.463,0 -0.79,0.275 -1.117,0.659 L 2.099,-2.42 l 0,-14.903 c 0,-0.577 -0.464,-1.073 -1.064,-1.073 C 0.463,-18.396 0,-17.9 0,-17.323 L 0,0 Z" /></g><g
           transform="translate(320.5551,94.9726)"
           id="g164"><path
             id="path166"
             style="fill:#737373;fill-opacity:1;fill-rule:nonzero;stroke:none"
             d="M 0,0 -4.388,9.844 -8.774,0 0,0 Z m -13.489,-5.637 7.739,17.075 c 0.272,0.606 0.682,0.963 1.362,0.963 l 0.11,0 c 0.654,0 1.09,-0.357 1.335,-0.963 l 7.74,-17.047 c 0.082,-0.193 0.136,-0.385 0.136,-0.55 0,-0.577 -0.463,-1.045 -1.036,-1.045 -0.517,0 -0.872,0.357 -1.062,0.798 l -1.99,4.427 -10.465,0 -1.989,-4.483 c -0.191,-0.467 -0.545,-0.742 -1.036,-0.742 -0.544,0 -0.981,0.44 -0.981,0.99 0,0.165 0.027,0.358 0.137,0.577" /></g><g
           transform="translate(326.6333,97.4746)"
           id="g168"><path
             id="path170"
             style="fill:#737373;fill-opacity:1;fill-rule:nonzero;stroke:none"
             d="m 0,0 0,0.056 c 0,5.444 4.033,9.953 9.646,9.953 3.081,0 5.042,-1.018 6.814,-2.502 0.218,-0.193 0.436,-0.495 0.436,-0.88 0,-0.577 -0.518,-1.072 -1.09,-1.072 -0.3,0 -0.545,0.137 -0.708,0.247 -1.472,1.32 -3.135,2.2 -5.478,2.2 -4.224,0 -7.386,-3.465 -7.386,-7.892 l 0,-0.054 c 0,-4.455 3.189,-7.947 7.386,-7.947 2.37,0 4.033,0.825 5.668,2.337 0.163,0.165 0.409,0.303 0.682,0.303 0.545,0 1.035,-0.495 1.035,-1.045 0,-0.33 -0.163,-0.605 -0.355,-0.77 C 14.771,-8.799 12.699,-9.898 9.565,-9.898 4.061,-9.898 0,-5.526 0,0" /></g><g
           transform="translate(346.6352,106.1914)"
           id="g172"><path
             id="path174"
             style="fill:#737373;fill-opacity:1;fill-rule:nonzero;stroke:none"
             d="m 0,0 c 0,0.604 0.49,1.1 1.062,1.1 0.6,0 1.091,-0.496 1.091,-1.1 l 0,-17.323 c 0,-0.605 -0.491,-1.1 -1.091,-1.1 -0.572,0 -1.062,0.495 -1.062,1.1 L 0,0 Z" /></g><g
           transform="translate(369.6069,97.4746)"
           id="g176"><path
             id="path178"
             style="fill:#737373;fill-opacity:1;fill-rule:nonzero;stroke:none"
             d="m 0,0 0,0.056 c 0,4.372 -3.161,7.946 -7.521,7.946 -4.361,0 -7.467,-3.52 -7.467,-7.892 l 0,-0.054 c 0,-4.372 3.161,-7.947 7.521,-7.947 C -3.106,-7.891 0,-4.371 0,0 m -17.223,0 0,0.056 c 0,5.306 3.952,9.953 9.756,9.953 5.805,0 9.702,-4.592 9.702,-9.899 l 0,-0.054 c 0,-5.307 -3.952,-9.954 -9.756,-9.954 -5.805,0 -9.702,4.591 -9.702,9.898" /></g><g
           transform="translate(375.2485,106.164)"
           id="g180"><path
             id="path182"
             style="fill:#737373;fill-opacity:1;fill-rule:nonzero;stroke:none"
             d="m 0,0 c 0,0.577 0.49,1.072 1.062,1.072 l 0.3,0 c 0.491,0 0.79,-0.248 1.09,-0.633 l 11.582,-14.902 0,14.518 c 0,0.577 0.464,1.072 1.064,1.072 0.572,0 1.035,-0.495 1.035,-1.072 l 0,-17.378 c 0,-0.577 -0.408,-1.017 -0.981,-1.017 l -0.109,0 c -0.463,0 -0.79,0.275 -1.117,0.659 L 2.099,-2.42 l 0,-14.903 c 0,-0.577 -0.464,-1.073 -1.064,-1.073 C 0.463,-18.396 0,-17.9 0,-17.323 L 0,0 Z" /></g><g
           transform="translate(407.9497,94.9726)"
           id="g184"><path
             id="path186"
             style="fill:#737373;fill-opacity:1;fill-rule:nonzero;stroke:none"
             d="M 0,0 -4.388,9.844 -8.774,0 0,0 Z m -13.489,-5.637 7.739,17.075 c 0.272,0.606 0.682,0.963 1.362,0.963 l 0.11,0 c 0.654,0 1.09,-0.357 1.335,-0.963 l 7.74,-17.047 c 0.082,-0.193 0.136,-0.385 0.136,-0.55 0,-0.577 -0.463,-1.045 -1.036,-1.045 -0.517,0 -0.872,0.357 -1.062,0.798 l -1.99,4.427 -10.465,0 -1.989,-4.483 c -0.191,-0.467 -0.545,-0.742 -1.036,-0.742 -0.544,0 -0.981,0.44 -0.981,0.99 0,0.165 0.027,0.358 0.137,0.577" /></g><g
           transform="translate(415.853,106.1914)"
           id="g188"><path
             id="path190"
             style="fill:#737373;fill-opacity:1;fill-rule:nonzero;stroke:none"
             d="m 0,0 c 0,0.604 0.49,1.1 1.062,1.1 0.6,0 1.09,-0.496 1.09,-1.1 l 0,-16.278 9.893,0 c 0.545,0 0.981,-0.467 0.981,-1.017 0,-0.551 -0.436,-0.99 -0.981,-0.99 l -10.983,0 C 0.49,-18.285 0,-17.79 0,-17.186 L 0,0 Z" /></g><g
           transform="translate(131.749,62.7304)"
           id="g192"><path
             id="path194"
             style="fill:#737373;fill-opacity:1;fill-rule:nonzero;stroke:none"
             d="m 0,0 c 4.824,0 7.903,3.3 7.903,7.562 l 0,0.055 c 0,4.262 -3.079,7.616 -7.903,7.616 l -4.469,0 L -4.469,0 0,0 Z m -6.623,16.141 c 0,0.605 0.491,1.099 1.063,1.099 l 5.56,0 c 5.996,0 10.138,-4.151 10.138,-9.568 l 0,-0.055 C 10.138,2.2 5.996,-2.007 0,-2.007 l -5.56,0 c -0.572,0 -1.063,0.495 -1.063,1.1 l 0,17.048 z" /></g><g
           transform="translate(147.1728,61.8232)"
           id="g196"><path
             id="path198"
             style="fill:#737373;fill-opacity:1;fill-rule:nonzero;stroke:none"
             d="m 0,0 0,17.048 c 0,0.605 0.491,1.099 1.063,1.099 l 11.855,0 c 0.545,0 0.981,-0.439 0.981,-0.989 0,-0.55 -0.436,-0.99 -0.981,-0.99 l -10.765,0 0,-6.571 9.538,0 c 0.545,0 0.981,-0.468 0.981,-0.991 0,-0.549 -0.436,-0.989 -0.981,-0.989 l -9.538,0 0,-6.737 10.901,0 c 0.545,0 0.981,-0.44 0.981,-0.989 0,-0.55 -0.436,-0.991 -0.981,-0.991 l -11.991,0 C 0.491,-1.1 0,-0.604 0,0" /></g><g
           transform="translate(175.2695,79.0088)"
           id="g200"><path
             id="path202"
             style="fill:#737373;fill-opacity:1;fill-rule:nonzero;stroke:none"
             d="m 0,0 c 0,0.604 0.491,1.1 1.063,1.1 0.6,0 1.09,-0.496 1.09,-1.1 l 0,-17.323 c 0,-0.605 -0.49,-1.1 -1.09,-1.1 -0.572,0 -1.063,0.495 -1.063,1.1 L 0,0 Z" /></g><g
           transform="translate(183.7441,78.9814)"
           id="g204"><path
             id="path206"
             style="fill:#737373;fill-opacity:1;fill-rule:nonzero;stroke:none"
             d="m 0,0 c 0,0.577 0.491,1.072 1.063,1.072 l 0.3,0 c 0.491,0 0.79,-0.248 1.09,-0.633 l 11.582,-14.902 0,14.518 c 0,0.577 0.464,1.072 1.063,1.072 0.572,0 1.035,-0.495 1.035,-1.072 l 0,-17.378 c 0,-0.577 -0.408,-1.017 -0.981,-1.017 l -0.109,0 c -0.463,0 -0.79,0.275 -1.117,0.659 L 2.099,-2.42 l 0,-14.903 c 0,-0.577 -0.464,-1.073 -1.063,-1.073 C 0.463,-18.396 0,-17.9 0,-17.323 L 0,0 Z" /></g><g
           transform="translate(205.164,70.292)"
           id="g208"><path
             id="path210"
             style="fill:#737373;fill-opacity:1;fill-rule:nonzero;stroke:none"
             d="m 0,0 0,0.056 c 0,5.279 3.843,9.953 9.566,9.953 2.889,0 4.769,-0.77 6.514,-2.062 0.244,-0.193 0.435,-0.495 0.435,-0.88 0,-0.605 -0.49,-1.1 -1.062,-1.1 -0.246,0 -0.464,0.11 -0.682,0.275 -1.363,1.045 -2.889,1.76 -5.287,1.76 C 5.26,8.002 2.235,4.399 2.235,0.11 l 0,-0.054 c 0,-4.592 2.916,-8.002 7.549,-8.002 2.18,0 4.196,0.852 5.505,1.925 l 0,4.784 -5.123,0 c -0.518,0 -0.955,0.44 -0.955,0.963 0,0.549 0.437,0.989 0.955,0.989 l 6.13,0 c 0.573,0 1.064,-0.494 1.064,-1.1 l 0,-5.856 c 0,-0.523 -0.245,-0.99 -0.735,-1.321 C 14.88,-8.854 12.537,-9.898 9.702,-9.898 3.707,-9.898 0,-5.499 0,0" /></g><g
           transform="translate(228.1098,61.8232)"
           id="g212"><path
             id="path214"
             style="fill:#737373;fill-opacity:1;fill-rule:nonzero;stroke:none"
             d="m 0,0 0,17.048 c 0,0.605 0.491,1.099 1.063,1.099 l 11.855,0 c 0.545,0 0.98,-0.439 0.98,-0.989 0,-0.55 -0.435,-0.99 -0.98,-0.99 l -10.765,0 0,-6.571 9.538,0 c 0.545,0 0.982,-0.468 0.982,-0.991 0,-0.549 -0.437,-0.989 -0.982,-0.989 l -9.538,0 0,-6.737 10.901,0 c 0.545,0 0.981,-0.44 0.981,-0.989 0,-0.55 -0.436,-0.991 -0.981,-0.991 l -11.991,0 C 0.491,-1.1 0,-0.604 0,0" /></g><g
           transform="translate(247.104,78.9814)"
           id="g216"><path
             id="path218"
             style="fill:#737373;fill-opacity:1;fill-rule:nonzero;stroke:none"
             d="m 0,0 c 0,0.577 0.49,1.072 1.062,1.072 l 0.3,0 c 0.491,0 0.79,-0.248 1.09,-0.633 l 11.582,-14.902 0,14.518 c 0,0.577 0.464,1.072 1.064,1.072 0.572,0 1.035,-0.495 1.035,-1.072 l 0,-17.378 c 0,-0.577 -0.408,-1.017 -0.981,-1.017 l -0.109,0 c -0.463,0 -0.79,0.275 -1.117,0.659 L 2.099,-2.42 l 0,-14.903 c 0,-0.577 -0.464,-1.073 -1.064,-1.073 C 0.463,-18.396 0,-17.9 0,-17.323 L 0,0 Z" /></g><g
           transform="translate(269.5591,79.0088)"
           id="g220"><path
             id="path222"
             style="fill:#737373;fill-opacity:1;fill-rule:nonzero;stroke:none"
             d="m 0,0 c 0,0.604 0.49,1.1 1.062,1.1 0.6,0 1.091,-0.496 1.091,-1.1 l 0,-17.323 c 0,-0.605 -0.491,-1.1 -1.091,-1.1 -0.572,0 -1.062,0.495 -1.062,1.1 L 0,0 Z" /></g><g
           transform="translate(278.0337,61.8232)"
           id="g224"><path
             id="path226"
             style="fill:#737373;fill-opacity:1;fill-rule:nonzero;stroke:none"
             d="m 0,0 0,17.048 c 0,0.605 0.49,1.099 1.062,1.099 l 11.855,0 c 0.545,0 0.981,-0.439 0.981,-0.989 0,-0.55 -0.436,-0.99 -0.981,-0.99 l -10.765,0 0,-6.571 9.538,0 c 0.546,0 0.982,-0.468 0.982,-0.991 0,-0.549 -0.436,-0.989 -0.982,-0.989 l -9.538,0 0,-6.737 10.902,0 c 0.545,0 0.98,-0.44 0.98,-0.989 0,-0.55 -0.435,-0.991 -0.98,-0.991 l -11.992,0 C 0.49,-1.1 0,-0.604 0,0" /></g><g
           transform="translate(305.0405,70.1552)"
           id="g228"><path
             id="path230"
             style="fill:#737373;fill-opacity:1;fill-rule:nonzero;stroke:none"
             d="m 0,0 c 2.861,0 4.905,1.484 4.905,3.959 l 0,0.055 c 0,2.365 -1.799,3.795 -4.878,3.795 l -5.886,0 L -5.859,0 0,0 Z m -8.012,8.716 c 0,0.605 0.491,1.099 1.063,1.099 l 7.14,0 C 2.534,9.815 4.415,9.101 5.614,7.891 6.541,6.956 7.086,5.608 7.086,4.097 l 0,-0.055 C 7.086,0.88 4.96,-0.963 1.989,-1.54 l 4.742,-6.159 c 0.218,-0.248 0.355,-0.495 0.355,-0.798 0,-0.577 -0.545,-1.072 -1.09,-1.072 -0.436,0 -0.764,0.248 -1.009,0.578 l -5.369,7.039 -5.477,0 0,-6.518 c 0,-0.604 -0.491,-1.099 -1.09,-1.099 -0.572,0 -1.063,0.495 -1.063,1.099 l 0,17.186 z" /></g><g
           transform="translate(318.1753,81.9511)"
           id="g232"><path
             id="path234"
             style="fill:#737373;fill-opacity:1;fill-rule:nonzero;stroke:none"
             d="M 0,0 C 0,0.137 0.055,0.302 0.137,0.412 L 1.771,2.914 C 2.044,3.327 2.344,3.547 2.753,3.547 3.407,3.547 4.225,3.106 4.225,2.722 4.225,2.502 4.061,2.31 3.843,2.09 L 1.799,0.137 C 1.363,-0.303 1.036,-0.386 0.518,-0.386 0.219,-0.386 0,-0.221 0,0 m -0.518,-2.942 c 0,0.604 0.491,1.099 1.063,1.099 0.6,0 1.091,-0.495 1.091,-1.099 l 0,-17.324 c 0,-0.604 -0.491,-1.099 -1.091,-1.099 -0.572,0 -1.063,0.495 -1.063,1.099 l 0,17.324 z" /></g><g
           transform="translate(338.4507,67.79)"
           id="g236"><path
             id="path238"
             style="fill:#737373;fill-opacity:1;fill-rule:nonzero;stroke:none"
             d="M 0,0 -4.388,9.844 -8.774,0 0,0 Z m -13.489,-5.637 7.739,17.075 c 0.272,0.606 0.682,0.963 1.362,0.963 l 0.11,0 c 0.654,0 1.09,-0.357 1.335,-0.963 l 7.74,-17.047 c 0.082,-0.193 0.136,-0.385 0.136,-0.55 0,-0.577 -0.463,-1.045 -1.036,-1.045 -0.517,0 -0.872,0.357 -1.062,0.798 l -1.99,4.427 -10.465,0 -1.989,-4.483 c -0.191,-0.467 -0.545,-0.742 -1.036,-0.742 -0.544,0 -0.981,0.44 -0.981,0.99 0,0.165 0.027,0.358 0.137,0.577" /></g><g
           transform="translate(356.2993,70.292)"
           id="g240"><path
             id="path242"
             style="fill:#737373;fill-opacity:1;fill-rule:nonzero;stroke:none"
             d="m 0,0 0,0.056 c 0,5.444 4.033,9.953 9.646,9.953 3.081,0 5.042,-1.018 6.814,-2.502 0.218,-0.193 0.436,-0.495 0.436,-0.88 0,-0.577 -0.518,-1.072 -1.09,-1.072 -0.3,0 -0.545,0.137 -0.708,0.247 -1.472,1.32 -3.135,2.2 -5.478,2.2 -4.224,0 -7.386,-3.465 -7.386,-7.892 l 0,-0.054 c 0,-4.455 3.189,-7.947 7.386,-7.947 2.37,0 4.033,0.825 5.668,2.337 0.163,0.165 0.409,0.303 0.682,0.303 0.545,0 1.035,-0.495 1.035,-1.045 0,-0.33 -0.163,-0.605 -0.355,-0.77 C 14.771,-8.799 12.699,-9.898 9.565,-9.898 4.061,-9.898 0,-5.526 0,0" /></g><g
           transform="translate(378.1821,79.0088)"
           id="g244"><path
             id="path246"
             style="fill:#737373;fill-opacity:1;fill-rule:nonzero;stroke:none"
             d="m 0,0 c 0,0.604 0.49,1.1 1.062,1.1 0.6,0 1.091,-0.496 1.091,-1.1 l 0,-17.323 c 0,-0.605 -0.491,-1.1 -1.091,-1.1 -0.572,0 -1.062,0.495 -1.062,1.1 L 0,0 Z" /></g><g
           transform="translate(392.7885,61.4111)"
           id="g248"><path
             id="path250"
             style="fill:#737373;fill-opacity:1;fill-rule:nonzero;stroke:none"
             d="m 0,0 -7.358,17.13 c -0.082,0.165 -0.11,0.303 -0.11,0.495 0,0.55 0.491,1.072 1.091,1.072 0.545,0 0.926,-0.357 1.117,-0.825 L 1.335,1.925 7.957,17.928 c 0.191,0.384 0.572,0.769 1.064,0.769 0.599,0 1.062,-0.495 1.062,-1.045 0,-0.165 -0.027,-0.301 -0.082,-0.439 L 2.616,0 C 2.37,-0.55 1.989,-0.907 1.362,-0.907 l -0.109,0 C 0.626,-0.907 0.218,-0.55 0,0" /></g><g
           transform="translate(407.8589,79.0088)"
           id="g252"><path
             id="path254"
             style="fill:#737373;fill-opacity:1;fill-rule:nonzero;stroke:none"
             d="m 0,0 c 0,0.604 0.49,1.1 1.062,1.1 0.6,0 1.091,-0.496 1.091,-1.1 l 0,-17.323 c 0,-0.605 -0.491,-1.1 -1.091,-1.1 -0.572,0 -1.062,0.495 -1.062,1.1 L 0,0 Z" /></g><g
           transform="translate(416.3335,79.0088)"
           id="g256"><path
             id="path258"
             style="fill:#737373;fill-opacity:1;fill-rule:nonzero;stroke:none"
             d="m 0,0 c 0,0.604 0.49,1.1 1.062,1.1 0.6,0 1.09,-0.496 1.09,-1.1 l 0,-16.278 9.893,0 c 0.545,0 0.981,-0.467 0.981,-1.017 0,-0.55 -0.436,-0.99 -0.981,-0.99 l -10.983,0 C 0.49,-18.285 0,-17.79 0,-17.186 L 0,0 Z" /></g><g
           transform="translate(125.2632,48.8799)"
           id="g260"><path
             id="path262"
             style="fill:#ef433a;fill-opacity:1;fill-rule:nonzero;stroke:none"
             d="m 0,0 c 0,0.385 0.327,0.715 0.708,0.715 l 0.137,0 c 0.3,0 0.517,-0.165 0.708,-0.413 l 7.44,-11.053 7.44,11.053 c 0.163,0.248 0.409,0.413 0.709,0.413 l 0.136,0 c 0.381,0 0.708,-0.33 0.708,-0.715 l 0,-18.011 c 0,-0.385 -0.327,-0.715 -0.708,-0.715 -0.382,0 -0.709,0.33 -0.709,0.715 l 0,16.114 -7.004,-10.284 c -0.163,-0.248 -0.354,-0.357 -0.599,-0.357 -0.245,0 -0.436,0.109 -0.6,0.357 l -7.004,10.284 0,-16.141 c 0,-0.385 -0.3,-0.688 -0.681,-0.688 -0.382,0 -0.681,0.303 -0.681,0.688 L 0,0 Z" /></g><g
           transform="translate(153.7978,51.4638)"
           id="g264"><path
             id="path266"
             style="fill:#ef433a;fill-opacity:1;fill-rule:nonzero;stroke:none"
             d="m 0,0 c 0,0.11 0.055,0.221 0.109,0.303 l 1.69,2.557 c 0.218,0.33 0.436,0.495 0.763,0.495 0.518,0 1.145,-0.358 1.145,-0.632 0,-0.165 -0.137,-0.33 -0.3,-0.495 L 1.227,0.11 C 0.899,-0.192 0.708,-0.247 0.354,-0.247 0.164,-0.247 0,-0.137 0,0 m -6.458,-20.484 0,17.817 c 0,0.385 0.326,0.715 0.708,0.715 l 12.318,0 c 0.354,0 0.654,-0.302 0.654,-0.659 0,-0.358 -0.3,-0.66 -0.654,-0.66 l -11.61,0 0,-7.562 10.383,0 c 0.355,0 0.655,-0.303 0.655,-0.66 0,-0.358 -0.3,-0.66 -0.655,-0.66 l -10.383,0 0,-7.727 11.746,0 c 0.354,0 0.654,-0.302 0.654,-0.659 0,-0.357 -0.3,-0.66 -0.654,-0.66 l -12.454,0 c -0.382,0 -0.708,0.33 -0.708,0.715" /></g><g
           transform="translate(163.3642,31.2822)"
           id="g268"><path
             id="path270"
             style="fill:#ef433a;fill-opacity:1;fill-rule:nonzero;stroke:none"
             d="M 0,0 6.813,8.799 0.327,17.13 c -0.136,0.192 -0.245,0.357 -0.245,0.55 0,0.33 0.327,0.66 0.681,0.66 0.273,0 0.436,-0.138 0.6,-0.358 l 6.322,-8.221 6.241,8.138 c 0.191,0.248 0.382,0.441 0.681,0.441 0.354,0 0.627,-0.303 0.627,-0.66 0,-0.165 -0.082,-0.33 -0.191,-0.467 L 8.53,8.826 15.261,0.082 c 0.164,-0.192 0.245,-0.357 0.245,-0.55 0,-0.33 -0.326,-0.66 -0.681,-0.66 -0.272,0 -0.436,0.138 -0.599,0.357 L 7.63,7.863 1.117,-0.687 c -0.19,-0.249 -0.381,-0.441 -0.681,-0.441 -0.354,0 -0.627,0.303 -0.627,0.66 0,0.165 0.082,0.33 0.191,0.468" /></g><g
           transform="translate(182.3056,48.9072)"
           id="g272"><path
             id="path274"
             style="fill:#ef433a;fill-opacity:1;fill-rule:nonzero;stroke:none"
             d="M 0,0 C 0,0.385 0.327,0.715 0.708,0.715 1.09,0.715 1.417,0.385 1.417,0 l 0,-18.038 c 0,-0.385 -0.327,-0.715 -0.709,-0.715 -0.381,0 -0.708,0.33 -0.708,0.715 L 0,0 Z" /></g><g
           transform="translate(187.1562,39.833)"
           id="g276"><path
             id="path278"
             style="fill:#ef433a;fill-opacity:1;fill-rule:nonzero;stroke:none"
             d="m 0,0 0,0.056 c 0,5.444 4.034,9.953 9.539,9.953 3.161,0 5.15,-1.1 7.003,-2.695 0.137,-0.137 0.273,-0.33 0.273,-0.577 0,-0.385 -0.355,-0.715 -0.736,-0.715 -0.191,0 -0.382,0.082 -0.491,0.193 C 14.008,7.672 12.182,8.717 9.511,8.717 4.933,8.717 1.472,4.95 1.472,0.11 l 0,-0.054 c 0,-4.868 3.515,-8.662 8.067,-8.662 2.588,0 4.414,0.935 6.213,2.668 0.109,0.109 0.272,0.219 0.491,0.219 0.354,0 0.681,-0.33 0.681,-0.687 0,-0.22 -0.109,-0.385 -0.218,-0.495 C 14.771,-8.716 12.672,-9.898 9.484,-9.898 4.034,-9.898 0,-5.526 0,0" /></g><g
           transform="translate(222.8589,39.833)"
           id="g280"><path
             id="path282"
             style="fill:#ef433a;fill-opacity:1;fill-rule:nonzero;stroke:none"
             d="m 0,0 0,0.056 c 0,4.756 -3.434,8.661 -8.148,8.661 -4.715,0 -8.095,-3.85 -8.095,-8.607 l 0,-0.054 c 0,-4.757 3.434,-8.662 8.149,-8.662 C -3.379,-8.606 0,-4.757 0,0 m -17.714,0 0,0.056 c 0,5.252 3.842,9.953 9.62,9.953 5.778,0 9.565,-4.647 9.565,-9.899 l 0,-0.054 c 0,-5.252 -3.842,-9.954 -9.619,-9.954 -5.778,0 -9.566,4.647 -9.566,9.898" /></g><g
           transform="translate(232.8618,31.5293)"
           id="g284"><path
             id="path286"
             style="fill:#ef433a;fill-opacity:1;fill-rule:nonzero;stroke:none"
             d="m 0,0 6.895,6.297 c 3.161,2.887 4.223,4.537 4.223,6.571 0,2.503 -2.016,4.125 -4.306,4.125 -2.316,0 -3.869,-1.155 -5.34,-3.218 -0.137,-0.192 -0.3,-0.301 -0.545,-0.301 -0.355,0 -0.655,0.274 -0.655,0.631 0,0.111 0.028,0.249 0.109,0.358 1.608,2.365 3.352,3.795 6.568,3.795 3.243,0 5.668,-2.282 5.668,-5.279 l 0,-0.055 c 0,-2.64 -1.417,-4.4 -4.768,-7.48 L 2.017,0.11 l 10.219,0 c 0.381,0 0.681,-0.302 0.681,-0.687 0,-0.385 -0.3,-0.688 -0.681,-0.688 l -11.882,0 c -0.381,0 -0.681,0.276 -0.681,0.661 0,0.247 0.109,0.412 0.327,0.604" /></g><g
           transform="translate(261.9409,39.833)"
           id="g288"><path
             id="path290"
             style="fill:#ef433a;fill-opacity:1;fill-rule:nonzero;stroke:none"
             d="m 0,0 0,0.056 c 0,4.481 -2.508,8.661 -6.459,8.661 -3.952,0 -6.404,-4.125 -6.404,-8.607 l 0,-0.054 c 0,-4.455 2.507,-8.662 6.459,-8.662 C -2.453,-8.606 0,-4.454 0,0 m -14.335,0 0,0.056 c 0,5.306 3.079,9.953 7.931,9.953 4.85,0 7.876,-4.592 7.876,-9.899 l 0,-0.054 c 0,-5.307 -3.08,-9.954 -7.931,-9.954 -4.852,0 -7.876,4.591 -7.876,9.898" /></g><g
           transform="translate(268.3471,48.2197)"
           id="g292"><path
             id="path294"
             style="fill:#ef433a;fill-opacity:1;fill-rule:nonzero;stroke:none"
             d="m 0,0 -3.106,-1.072 c -0.137,-0.055 -0.246,-0.083 -0.355,-0.083 -0.327,0 -0.6,0.275 -0.6,0.605 0,0.33 0.218,0.495 0.518,0.605 l 3.325,1.237 c 0.3,0.11 0.572,0.192 0.872,0.192 l 0.055,0 c 0.436,0 0.681,-0.329 0.681,-0.686 l 0,-18.149 c 0,-0.384 -0.3,-0.714 -0.681,-0.714 -0.382,0 -0.709,0.33 -0.709,0.714 L 0,0 Z" /></g><g
           transform="translate(284.562,44.7002)"
           id="g296"><path
             id="path298"
             style="fill:#ef433a;fill-opacity:1;fill-rule:nonzero;stroke:none"
             d="m 0,0 0,0.055 c 0,2.173 -2.18,3.74 -4.96,3.74 -2.779,0 -4.959,-1.567 -4.959,-3.74 l 0,-0.055 c 0,-2.364 2.262,-3.959 4.959,-3.959 C -2.262,-3.959 0,-2.364 0,0 m 0.654,-9.349 0,0.055 c 0,2.393 -2.507,4.125 -5.614,4.125 -3.106,0 -5.613,-1.732 -5.613,-4.125 l 0,-0.055 c 0,-2.172 2.098,-4.069 5.613,-4.069 3.516,0 5.614,1.897 5.614,4.069 m -12.699,0.055 0,0.056 c 0,2.254 1.826,3.959 4.224,4.757 -1.88,0.769 -3.57,2.199 -3.57,4.481 l 0,0.055 c 0,2.997 3.134,5.032 6.431,5.032 3.298,0 6.432,-2.035 6.432,-5.032 L 1.472,0 c 0,-2.282 -1.69,-3.712 -3.57,-4.481 2.398,-0.798 4.224,-2.503 4.224,-4.757 l 0,-0.056 c 0,-3.189 -3.079,-5.417 -7.086,-5.417 -4.006,0 -7.085,2.228 -7.085,5.417" /></g><g
           transform="translate(127.8862,121.1396)"
           id="g300"><path
             id="path302"
             style="fill:#32454b;fill-opacity:1;fill-rule:nonzero;stroke:none"
             d="m 0,0 8.592,7.377 c 3.837,3.266 5.235,5.08 5.235,7.62 0,2.781 -1.958,4.394 -4.515,4.394 -2.238,0 -3.797,-1.048 -5.516,-3.144 C 3.437,15.843 2.877,15.48 2.078,15.48 c -1.239,0 -2.238,1.008 -2.238,2.258 0,0.524 0.2,1.089 0.56,1.532 2.278,2.862 4.875,4.555 9.271,4.555 5.475,0 9.231,-3.386 9.231,-8.425 l 0,-0.081 c 0,-4.434 -2.318,-6.853 -7.273,-10.925 l -5.754,-4.837 11.349,0 c 1.199,0 2.158,-0.968 2.158,-2.178 0,-1.209 -0.959,-2.176 -2.158,-2.176 l -15.865,0 c -1.519,0 -2.638,0.886 -2.638,2.338 0,0.967 0.44,1.773 1.279,2.459" /></g><g
           transform="translate(168.0449,135.4912)"
           id="g304"><path
             id="path306"
             style="fill:#32454b;fill-opacity:1;fill-rule:nonzero;stroke:none"
             d="m 0,0 0,0.081 c 0,2.942 -2.278,5.2 -5.834,5.2 -3.478,0 -5.555,-2.338 -5.555,-5.24 l 0,-0.081 c 0,-2.943 2.238,-5.04 5.714,-5.04 C -2.118,-5.08 0,-2.741 0,0 m -14.267,-17.294 c -0.679,0.443 -1.119,1.128 -1.119,2.056 0,1.29 1.039,2.257 2.318,2.257 0.52,0 0.959,-0.161 1.359,-0.403 1.638,-1.169 3.197,-1.734 5.115,-1.734 4.116,0 6.594,3.669 6.754,8.869 -1.399,-1.693 -3.557,-2.983 -6.554,-2.983 -5.955,0 -9.911,3.507 -9.911,8.95 l 0,0.08 c 0,5.523 4.236,9.757 10.43,9.757 3.517,0 5.795,-1.009 7.793,-2.984 2.039,-2.096 3.357,-5.2 3.357,-10.763 l 0,-0.081 c 0,-9.071 -4.436,-15.36 -11.989,-15.36 -3.157,0 -5.474,0.927 -7.553,2.339" /></g><g
           transform="translate(109.1982,3.3379)"
           id="g308"><path
             id="path310"
             style="fill:#ef433a;fill-opacity:1;fill-rule:nonzero;stroke:none"
             d="m 0,0 0,9.719 c -3.17,-0.341 -6.403,-0.52 -9.672,-0.52 -49.622,0 -89.85,40.224 -89.85,89.851 0,49.621 40.228,89.849 89.85,89.849 22.891,0 43.776,-8.571 59.642,-22.663 l -2.55,-2.533 10.298,1.287 0.848,6.435 0.039,0.034 c 0,0 -0.011,0.009 -0.033,0.033 l 0.501,3.797 -2.224,-2.212 c -17.63,15.847 -40.95,25.499 -66.521,25.499 -54.966,0 -99.526,-44.564 -99.526,-99.526 0,-54.963 44.56,-99.528 99.526,-99.528 3.265,0 6.497,0.17 9.672,0.478" /></g><g
           transform="translate(25.0542,102.3877)"
           id="g312"><path
             id="path314"
             style="fill:#32454b;fill-opacity:1;fill-rule:nonzero;stroke:none"
             d="m 0,0 c 0,40.842 33.112,73.951 73.954,73.951 3.859,0 7.634,-0.302 11.332,-0.867 l 0,-3.189 6.351,8.217 -6.351,8.214 0,-3.468 c -3.709,0.501 -7.487,0.77 -11.332,0.77 C 27.765,83.628 -9.675,46.187 -9.675,0 c 0,-46.187 37.44,-83.632 83.629,-83.632 3.452,0 6.849,0.211 10.19,0.621 l 0,9.752 c -3.33,-0.447 -6.727,-0.698 -10.19,-0.698 C 33.112,-73.957 0,-40.837 0,0" /></g><g
           transform="translate(31.6592,102.3877)"
           id="g316"><path
             id="path318"
             style="fill:#737373;fill-opacity:1;fill-rule:nonzero;stroke:none"
             d="m 0,0 c 0,-36.337 29.459,-65.795 65.796,-65.795 4.005,0 7.932,0.358 11.743,1.048 l 0,10.224 c -3.784,-0.812 -7.714,-1.25 -11.743,-1.25 -30.803,0 -55.775,24.965 -55.775,55.773 0,19.291 9.792,36.284 24.676,46.3 0,0 -0.009,0.028 -0.009,0.071 l 0.664,-2.793 4.26,9.469 -8.085,6.519 0.711,-2.966 C 12.939,45.125 0,24.075 0,0" /></g><g
           transform="translate(188.0312,140.4995)"
           id="g320"><path
             id="path322"
             style="fill:none;stroke:#32454b;stroke-width:2;stroke-linecap:butt;stroke-linejoin:miter;stroke-miterlimit:10;stroke-dasharray:none;stroke-opacity:1"
             d="m 0,0 c 0,-2.381 -1.931,-4.312 -4.312,-4.312 -2.381,0 -4.312,1.931 -4.312,4.312 0,2.381 1.931,4.312 4.312,4.312 C -1.931,4.312 0,2.381 0,0 Z" /></g></g></g></g></svg>